<?xml version="1.0" encoding="utf-8"?>
<!-- Generator: Adobe Illustrator 16.0.0, SVG Export Plug-In . SVG Version: 6.00 Build 0)  -->
<!DOCTYPE svg PUBLIC "-//W3C//DTD SVG 1.1//EN" "http://www.w3.org/Graphics/SVG/1.1/DTD/svg11.dtd">
<svg version="1.1" id="Capa_1" xmlns="http://www.w3.org/2000/svg" xmlns:xlink="http://www.w3.org/1999/xlink" x="0px" y="0px"
	 width="488px" height="557.5px" viewBox="233.5 2.5 488 557.5" style="enable-background:new 233.5 2.5 488 557.5;"
	 xml:space="preserve">
<style type="text/css">
<![CDATA[
	.st0{fill:none;stroke:#000000;stroke-width:5;stroke-linecap:round;stroke-linejoin:round;stroke-miterlimit:10;}
	.st1{fill:none;stroke:#000000;stroke-linecap:round;stroke-linejoin:round;stroke-miterlimit:10;}
	.st2{enable-background:new    ;}
	.st3{stroke:#000000;stroke-width:5;stroke-linecap:round;stroke-linejoin:round;stroke-miterlimit:10;}
	.st4{fill:#00BAA6;}
	.st5{fill:#00BAA6;stroke:#000000;stroke-width:5;stroke-linecap:round;stroke-linejoin:round;stroke-miterlimit:10;}
]]>
</style>
<g>
	<polyline class="st5" points="536.8789,474.4785 476.8818,532.54 415.2725,474.4785 	"/>
	<g>
		<g>
			<g>
				<path class="st5" d="M548.1514,318.9658h75.3809c-0.4541,2.1885-0.7568,4.4346-0.7568,6.7588
					c0,18.3359,14.8613,33.2012,33.1973,33.2012c18.3418,0,33.1992-14.8652,33.1992-33.2012
					c0-11.8945-6.2705-22.291-15.6777-28.1543c9.4063-5.8633,15.6777-16.2656,15.6777-28.1572
					c0-18.3389-14.8574-33.2041-33.1992-33.2041c-18.3359,0-33.1973,14.8652-33.1973,33.2041c0,2.3198,0.3027,4.5688,0.7568,6.7559
					h-38.2314"/>
				<path class="st5" d="M407.9033,318.9658h-75.3853c0.4541,2.1885,0.7588,4.4346,0.7588,6.7588
					c0,18.3359-14.8599,33.2012-33.2007,33.2012c-18.3359,0-33.1992-14.8652-33.1992-33.2012
					c0-11.8945,6.2729-22.291,15.6729-28.1543c-9.3999-5.8633-15.6729-16.2656-15.6729-28.1572
					c0-18.3389,14.8633-33.2041,33.1992-33.2041c18.3408,0,33.2007,14.8652,33.2007,33.2041c0,2.3198-0.3047,4.5688-0.7588,6.7559
					h38.2339"/>
				<path class="st0" d="M600.1982,116.771V219c0,64.709-52.4521,117.1582-117.1543,117.1582h-8.1172
					c-64.6934,0-117.1528-52.4482-117.1528-117.1582V116.771"/>
				<g>
					<path class="st0" d="M481.0889,28.313c70.3545,0,109.0039,34.395,109.0039,34.395s32.3447-10.771,52.4658,15.4712
						c20.1182,26.2417,55.4014,98.0459,24.4961,125.0986c-37.6172,32.9321-64.7539-25.2217-64.7539-25.2217"/>
					<path class="st0" d="M476.8818,28.313c-70.3506,0-109.001,34.395-109.001,34.395s-32.3477-10.771-52.4697,15.4712
						c-20.1182,26.2417-55.397,98.0459-24.4922,125.0986c37.6152,32.9321,64.75-25.2217,64.75-25.2217"/>
				</g>
			</g>
			<g>
				<line class="st0" x1="419.1738" y1="146.688" x2="419.1738" y2="188.4219"/>
				<line class="st0" x1="536.8789" y1="146.688" x2="536.8789" y2="188.4219"/>
			</g>
			<path class="st3" d="M484.3359,285.6133c7.7598-1.3291,21.3926-3.752,19.0859-14.4014
				c-3.1758-14.6997-48.7803-12.522-49.123,1.6299C454.0625,282.6094,463.3086,289.2051,484.3359,285.6133z"/>
			<line class="st0" x1="478.9873" y1="277.0908" x2="478.9873" y2="311.4629"/>
		</g>
		<g class="st2">
			<path d="M312.5317,368.7939h21.8921c5.9199,0,10.4727,0.4648,13.6572,1.3936c3.1831,0.9297,5.5762,2.2725,7.1768,4.0273
				c1.6006,1.7559,2.6851,3.8818,3.2529,6.377c0.5679,2.4961,0.8521,6.3604,0.8521,11.5918v7.2803
				c0,5.3359-0.5513,9.2256-1.6523,11.6689c-1.1021,2.4443-3.124,4.3203-6.0669,5.6279c-2.9434,1.3086-6.7896,1.9619-11.54,1.9619
				h-5.8345v33.665h-21.7373V368.7939z M334.269,383.0967v21.2725c0.6196,0.0342,1.1528,0.0518,1.6006,0.0518
				c1.9961,0,3.3818-0.4912,4.1563-1.4717c0.7749-0.9814,1.1621-3.0205,1.1621-6.1182v-6.8672c0-2.8574-0.4478-4.7158-1.3428-5.5771
				C338.9497,383.5273,337.0913,383.0967,334.269,383.0967z"/>
		</g>
		<g class="st2">
			<path d="M359.2656,368.7939h36.2461v16.7285h-14.5088v15.8516h13.5796v15.9033h-13.5796v18.3809h15.9546v16.7295h-37.6919
				V368.7939z"/>
		</g>
		<g class="st2">
			<path d="M439.2515,368.7939v16.7285h-12.9082v66.8652h-21.7378v-66.8652H391.749v-16.7285H439.2515z"/>
		</g>
		<g class="st2">
			<path class="st4" d="M496.2148,394.0938h-20.1895v-6.1953c0-2.8916-0.2578-4.7324-0.7744-5.5254
				c-0.5161-0.791-1.377-1.1875-2.5815-1.1875c-1.3086,0-2.2979,0.5342-2.9688,1.6025c-0.6714,1.0684-1.0068,2.6865-1.0068,4.8564
				c0,2.79,0.3765,4.8916,1.1318,6.3037c0.7202,1.4121,2.7681,3.1162,6.1426,5.1104c9.6763,5.7432,15.77,10.457,18.2837,14.1396
				c2.5117,3.6836,3.7695,9.6211,3.7695,17.8135c0,5.9551-0.6973,10.3447-2.0918,13.166c-1.3936,2.8232-4.0879,5.1895-8.0801,7.0996
				c-3.9941,1.9111-8.6406,2.8662-13.9409,2.8662c-5.8174,0-10.7832-1.1025-14.896-3.3047
				c-4.1138-2.2021-6.8076-5.0088-8.0806-8.416c-1.2739-3.4082-1.9106-8.2441-1.9106-14.5088v-5.4736H469.21v10.1719
				c0,3.1328,0.2842,5.1465,0.8521,6.041c0.5679,0.8955,1.5747,1.3428,3.0205,1.3428s2.521-0.5684,3.2271-1.7041
				c0.7051-1.1357,1.0586-2.8223,1.0586-5.0605c0-4.9219-0.6714-8.1396-2.0137-9.6553c-1.3774-1.5137-4.7681-4.0439-10.1719-7.5898
				c-5.4043-3.5791-8.9839-6.1777-10.7397-7.7969c-1.7554-1.6172-3.21-3.8545-4.3628-6.7119
				c-1.1538-2.8564-1.73-6.5059-1.73-10.9463c0-6.4023,0.8174-11.083,2.4526-14.0439c1.6348-2.96,4.2769-5.2744,7.9258-6.9443
				c3.6484-1.6699,8.0547-2.5049,13.2183-2.5049c5.645,0,10.4556,0.9131,14.4312,2.7363c3.9756,1.8252,6.6094,4.123,7.8994,6.8936
				c1.291,2.7715,1.9375,7.4785,1.9375,14.1211V394.0938z"/>
			<path class="st4" d="M548.8965,368.7939v83.5938h-21.7383v-35.1104h-6.5059v35.1104H498.916v-83.5938h21.7363v29.8955h6.5059
				v-29.8955H548.8965z"/>
			<path class="st4" d="M601.3711,417.7422c0,8.3994-0.1992,14.3457-0.5938,17.8389c-0.3965,3.4941-1.6357,6.6865-3.7178,9.5781
				c-2.083,2.8916-4.8975,5.1113-8.4424,6.6602c-3.5449,1.5498-7.6758,2.3242-12.3916,2.3242
				c-4.4756,0-8.4932-0.7324-12.0557-2.1943c-3.5635-1.4629-6.4287-3.6572-8.5977-6.584c-2.168-2.9248-3.459-6.1094-3.8721-9.5518
				c-0.4131-3.4414-0.6201-9.4658-0.6201-18.0713v-14.3027c0-8.3984,0.1973-14.3447,0.5938-17.8389
				c0.3955-3.4932,1.6348-6.6865,3.7178-9.5781s4.8965-5.1113,8.4424-6.6602c3.5449-1.5498,7.6758-2.3242,12.3916-2.3242
				c4.4746,0,8.4932,0.7324,12.0557,2.1943c3.5635,1.4639,6.4297,3.6582,8.5977,6.584s3.459,6.1104,3.873,9.5518
				c0.4121,3.4424,0.6191,9.4668,0.6191,18.0713V417.7422z M579.6328,390.2734c0-3.8896-0.2148-6.377-0.6445-7.4609
				c-0.4316-1.085-1.3164-1.627-2.6592-1.627c-1.1357,0-2.0059,0.4395-2.6074,1.3164c-0.6025,0.8779-0.9033,3.4688-0.9033,7.7715
				v39.0342c0,4.8535,0.1973,7.8486,0.5938,8.9844c0.3945,1.1357,1.3164,1.7041,2.7617,1.7041c1.4805,0,2.4268-0.6533,2.8398-1.9619
				s0.6191-4.4229,0.6191-9.3457V390.2734z"/>
			<path class="st4" d="M603.5566,368.7939h21.8916c5.9199,0,10.4727,0.4648,13.6572,1.3936
				c3.1836,0.9297,5.5762,2.2725,7.1768,4.0273c1.6006,1.7559,2.6846,3.8818,3.2529,6.377
				c0.5684,2.4961,0.8516,6.3604,0.8516,11.5918v7.2803c0,5.3359-0.5508,9.2256-1.6523,11.6689
				c-1.1016,2.4443-3.123,4.3203-6.0664,5.6279c-2.9434,1.3086-6.7891,1.9619-11.54,1.9619h-5.835v33.665h-21.7363V368.7939z
				 M625.293,383.0967v21.2725c0.6201,0.0342,1.1533,0.0518,1.6016,0.0518c1.9961,0,3.3809-0.4912,4.1563-1.4717
				c0.7744-0.9814,1.1621-3.0205,1.1621-6.1182v-6.8672c0-2.8574-0.4482-4.7158-1.3438-5.5771
				C629.9746,383.5273,628.1152,383.0967,625.293,383.0967z"/>
		</g>
		<g>
			<g>
				<path class="st1" d="M478.0244,296.1465"/>
			</g>
		</g>
		<line class="st0" x1="682.042" y1="474.4785" x2="274.0098" y2="474.4785"/>
	</g>
</g>
</svg>
